========== Ricky Martin Ft. Wisin Yandel  -  Frio HD 1080p =====================


Format                           : MPEG-4
Format profile                   : Base Media / Version 2
Codec ID                         : mp42
File size                        : 164 MiB
Duration                         : 3mn 43s
Overall bit rate                 : 6 136 Kbps
Encoded date                     : UTC 2011-07-19 10:48:52
Tagged date                      : UTC 2011-07-19 10:48:52
gsst                             : 0

Video
ID                               : 1
Format                           : AVC
Format/Info                      : Advanced Video Codec
Format profile                   : High@L4.0
Format settings, CABAC           : Yes
Format settings, ReFrames        : 1 frame
Codec ID                         : avc1
Codec ID/Info                    : Advanced Video Coding
Duration                         : 3mn 43s
Bit rate mode                    : Variable
Bit rate                         : 5 977 Kbps
Maximum bit rate                 : 12.1 Mbps
Width                            : 1 920 pixels
Height                           : 1 080 pixels
Display aspect ratio             : 16:9
Frame rate mode                  : Variable
Frame rate                       : 29.970 fps
Minimum frame rate               : 29.412 fps
Maximum frame rate               : 200.000 fps
Color space                      : YUV
Chroma subsampling               : 4:2:0
Bit depth                        : 8 bits
Scan type                        : Progressive
Bits/(Pixel*Frame)               : 0.096
Stream size                      : 160 MiB (97%)
Tagged date                      : UTC 2011-07-19 10:48:54

Audio
ID                               : 2
Format                           : AAC
Format/Info                      : Advanced Audio Codec
Format version                   : Version 4
Format profile                   : LC
Format settings, SBR             : No
Codec ID                         : 40
Duration                         : 3mn 43s
Bit rate mode                    : Variable
Bit rate                         : 152 Kbps
Maximum bit rate                 : 185 Kbps
Channel(s)                       : 2 channels
Channel positions                : Front: L R
Sampling rate                    : 44.1 KHz
Stream size                      : 4.04 MiB (2%)

======================== SCREEN SHOTS ===================================

                        http://bayimg.com/oaJjnAADf
                        http://bayimg.com/PajjbaaDf
                        http://bayimg.com/paJjDAADF


===========  LIFE IS TOO SHORT SO, ENJOY EVERY MOMENT ======================


==============  MORE STUFF HERE =============================================

                http://thepiratebay.org/user/HaUnTiNg.SuMMeR/


===================================================================================
 ##  #  # # # # ### ### ###     ##  #   ###  #   ## ### ===========================
#   # # ### ### #   # #  #      # # #   #   # # #   # =============================  
#   # # ### ### ##  # #  #      ##  #   ##  ###  #  ##=============================  
#   # # # # # # #   # #  #      #   #   #   # #   # # =============================  
 ##  #  # # # # ### # #  #      #   ### ### # # ##  ###===========================
==================================================================================
		
